<svg width="1440" height="293" viewBox="0 0 1440 293" fill="none" xmlns="http://www.w3.org/2000/svg">
<path fill-rule="evenodd" clip-rule="evenodd" d="M1440 200.201C1400.39 176.403 1357.13 153.82 1310.86 131.49C1296.48 124.551 1282.49 117.447 1268.52 110.349C1216.19 83.7641 1163.98 57.2414 1091.48 39.6188C995.273 16.2343 883.989 -2.65218 771.155 0.306074C704.063 2.06486 646.982 16.2555 589.313 30.5922L589.31 30.5929C550.633 40.2084 511.692 49.8896 469.289 55.9301C424.955 62.2458 376.42 64.4933 328.274 66.7228C252.684 70.2231 178.052 73.6789 122.135 92.7643C51.4641 116.886 27.5166 154.302 3.99592 191.051C2.66538 193.131 1.3362 195.207 0 197.279V235V253V293H1440V253V235V200.201Z" fill="#F7C45F"/>
</svg>
