<svg id="Calque_1" data-name="Calque 1" xmlns="http://www.w3.org/2000/svg" viewBox="0 0 40.88 54.48"><defs><style>.cls-1{fill:#73b7b9;}.cls-2{fill:#e7e1d5;}</style></defs><title>Logo</title><path class="cls-1" d="M18.95,62.68A3.63,3.63,0,0,1,15.3,59V39.35a3.63,3.63,0,0,1,3.65-3.65h4l-6.8-6.8A3.52,3.52,0,0,1,15,26.32a3.47,3.47,0,0,1,1.06-2.55,3.52,3.52,0,0,1,2.58-1.06,3.47,3.47,0,0,1,2.55,1.06L33.16,35.7h1.37a10.77,10.77,0,0,0,2.55-.3l-21-21A3.46,3.46,0,0,1,15,12a3.94,3.94,0,0,1,.34-1.56,3.33,3.33,0,0,1,3.34-2.24H34.52a16.79,16.79,0,0,1,12.31,5.13,16.73,16.73,0,0,1,5.09,12.27,17.94,17.94,0,0,1-.8,5.4A18,18,0,0,1,55.88,43.6a18.38,18.38,0,0,1-5.59,13.49A18.38,18.38,0,0,1,36.8,62.68Zm3.65-7.26H36.8A11.8,11.8,0,0,0,48.62,43.6a11.45,11.45,0,0,0-1.56-6l-.23.23A16.85,16.85,0,0,1,34.52,43H22.59Zm4.86-39.93L43,31.07a9.82,9.82,0,0,0,1.63-5.47A10.18,10.18,0,0,0,34.52,15.49Z" transform="translate(-14.99 -8.19)"/><path class="cls-2" d="M33.16,35.7h1.37a10.77,10.77,0,0,0,2.55-.3l-21-21A3.46,3.46,0,0,1,15,12a3.94,3.94,0,0,1,.34-1.56,3.33,3.33,0,0,1,3.34-2.24H34.53a16.79,16.79,0,0,1,12.31,5.13,16.73,16.73,0,0,1,5.09,12.27,16.73,16.73,0,0,1-5.09,12.27A16.85,16.85,0,0,1,34.53,43H22.6V59a3.63,3.63,0,0,1-3.65,3.65A3.63,3.63,0,0,1,15.3,59V39.35a3.63,3.63,0,0,1,3.65-3.65h4l-6.8-6.8A3.52,3.52,0,0,1,15,26.32a3.47,3.47,0,0,1,1.06-2.55,3.52,3.52,0,0,1,2.58-1.06,3.47,3.47,0,0,1,2.55,1.06Zm-5.7-20.21L43,31.07a9.82,9.82,0,0,0,1.63-5.47A10.18,10.18,0,0,0,34.53,15.49Z" transform="translate(-14.99 -8.19)"/></svg>