<?xml version="1.0" encoding="utf-8"?>
<!-- Generator: Adobe Illustrator 21.0.2, SVG Export Plug-In . SVG Version: 6.00 Build 0)  -->
<svg version="1.1" id="Calque_1" xmlns="http://www.w3.org/2000/svg" xmlns:xlink="http://www.w3.org/1999/xlink" x="0px" y="0px"
	 viewBox="0 0 40.9 54.5" style="enable-background:new 0 0 40.9 54.5;" xml:space="preserve">
<style type="text/css">
	.st0{fill:#FFFFFF;}
</style>
<title>Logo</title>
<path class="st0" d="M4,54.5c-2,0-3.6-1.6-3.7-3.6c0,0,0,0,0-0.1V31.2c0-2,1.6-3.6,3.6-3.7c0,0,0,0,0,0h4l-6.8-6.8
	C0.4,20,0,19.1,0,18.1c0-1,0.4-1.9,1.1-2.6c0.7-0.7,1.6-1.1,2.6-1.1c1,0,1.9,0.4,2.5,1.1l12,11.9h1.4c0.9,0,1.7-0.1,2.5-0.3l-21-21
	C0.4,5.6,0,4.7,0,3.8c0-0.5,0.1-1.1,0.3-1.6C0.8,0.8,2.2-0.1,3.7,0h15.8c4.6-0.1,9.1,1.8,12.3,5.1c3.3,3.2,5.2,7.7,5.1,12.3
	c0,1.8-0.3,3.7-0.8,5.4c3.2,3.4,4.9,7.9,4.8,12.6c0.1,5.1-1.9,10-5.6,13.5c-3.5,3.6-8.4,5.7-13.5,5.6H4z M7.6,47.2h14.2
	c6.5,0,11.8-5.3,11.8-11.8c0,0,0,0,0,0c0-2.1-0.5-4.2-1.6-6l-0.2,0.2c-3.2,3.3-7.7,5.2-12.3,5.2H7.6L7.6,47.2z M12.5,7.3L28,22.9
	c1.1-1.6,1.6-3.5,1.6-5.5c0-5.6-4.5-10.1-10.1-10.1L12.5,7.3z"/>
<path d="M18.2,27.5h1.4c0.9,0,1.7-0.1,2.5-0.3l-21-21C0.4,5.6,0,4.7,0,3.8c0-0.5,0.1-1.1,0.3-1.6C0.8,0.8,2.2-0.1,3.7,0h15.8
	c4.6-0.1,9.1,1.8,12.3,5.1c3.3,3.2,5.2,7.7,5.1,12.3c0.1,4.6-1.8,9.1-5.1,12.3c-3.2,3.3-7.7,5.2-12.3,5.1H7.6v16
	c0,2-1.6,3.6-3.6,3.7c0,0,0,0,0,0c-2,0-3.6-1.6-3.7-3.6c0,0,0,0,0,0V31.2c0-2,1.6-3.6,3.6-3.7c0,0,0,0,0,0h4l-6.8-6.8
	C0.4,20,0,19.1,0,18.1c0-1,0.4-1.9,1.1-2.6c0.7-0.7,1.6-1.1,2.6-1.1c1,0,1.9,0.4,2.5,1.1L18.2,27.5z M12.5,7.3L28,22.9
	c1.1-1.6,1.6-3.5,1.6-5.5c0-5.6-4.5-10.1-10.1-10.1L12.5,7.3z"/>
</svg>
