<?xml version="1.0" encoding="utf-8"?>
<!-- Generator: Adobe Illustrator 21.0.2, SVG Export Plug-In . SVG Version: 6.00 Build 0)  -->
<svg version="1.1" id="Calque_1" xmlns="http://www.w3.org/2000/svg" xmlns:xlink="http://www.w3.org/1999/xlink" x="0px" y="0px"
	 viewBox="0 0 100 100" style="enable-background:new 0 0 100 100;" xml:space="preserve">
<g>
	<path d="M56.9,46.4c1.3,0,2.4,0.2,3.5,0.6s2,1,2.8,1.8c0.8,0.8,1.4,1.7,1.8,2.7c0.4,1.1,0.7,2.2,0.7,3.5c0,1.4-0.2,2.6-0.7,3.7
		s-1.2,2.1-2.1,2.9c-0.9,0.8-1.9,1.4-3.2,1.9c-1.2,0.4-2.5,0.7-4,0.7c-2,0-3.7-0.4-5.3-1.3c-1.6-0.8-2.7-2-3.6-3.4l2.9-3
		c0.7,1,1.6,1.8,2.7,2.4c1.1,0.6,2.2,0.9,3.3,0.9c1.4,0,2.5-0.4,3.4-1.2c0.9-0.8,1.3-1.9,1.3-3.3c0-1.3-0.4-2.4-1.2-3.2
		c-0.8-0.8-1.9-1.2-3.1-1.2c-0.8,0-1.6,0.2-2.3,0.6c-0.7,0.4-1.3,0.9-1.7,1.6h-4.5c0-0.1,0-0.4,0.2-0.9c0.1-0.5,0.2-1.1,0.4-1.9
		c0.2-0.8,0.3-1.6,0.5-2.6c0.2-1,0.4-1.9,0.6-2.9c0.5-2.3,1-4.9,1.5-7.8h13.3v4.6h-9.6l-1.1,6c0.3-0.3,0.8-0.6,1.4-0.8
		C55.3,46.5,56.1,46.4,56.9,46.4z"/>
	<path d="M43.3,42.8c-0.5-1.4-1.2-2.6-2.1-3.7c-0.9-1-1.9-1.8-3.1-2.4c-1.2-0.6-2.5-0.9-3.9-0.9v4.7c0.7,0,1.3,0.2,1.9,0.5
		c0.6,0.3,1.1,0.8,1.5,1.4c0.4,0.6,0.7,1.3,1,2.2c0.2,0.9,0.3,1.8,0.3,2.8c0,1-0.1,1.9-0.3,2.8c-0.2,0.8-0.6,1.6-1,2.2
		c-0.4,0.6-0.9,1.1-1.5,1.4c-0.6,0.3-1.2,0.5-1.9,0.5v4.7c1.4,0,2.7-0.3,3.9-0.9c1.2-0.6,2.2-1.4,3.1-2.4c0.9-1,1.6-2.2,2.1-3.7
		c0.5-1.4,0.7-3,0.7-4.6C44,45.7,43.8,44.2,43.3,42.8z"/>
</g>
</svg>
