<?xml version="1.0" encoding="utf-8"?>
<!-- Generator: Adobe Illustrator 21.0.2, SVG Export Plug-In . SVG Version: 6.00 Build 0)  -->
<svg version="1.1" id="Calque_1" xmlns="http://www.w3.org/2000/svg" xmlns:xlink="http://www.w3.org/1999/xlink" x="0px" y="0px"
	 viewBox="0 0 100 100" style="enable-background:new 0 0 100 100;" xml:space="preserve">
<g>
	<path d="M64.8,56.6v4.6H49.3v-4.6h5.4V45c-0.2,0.3-0.6,0.6-1.1,0.9c-0.5,0.3-1,0.6-1.6,0.9c-0.6,0.3-1.2,0.5-1.8,0.7
		c-0.6,0.2-1.2,0.3-1.7,0.3v-4.8c0.5,0,1-0.1,1.7-0.4c0.7-0.3,1.3-0.6,1.9-1c0.6-0.4,1.2-0.8,1.7-1.2c0.5-0.4,0.8-0.7,0.9-0.9H60
		v17.1H64.8z"/>
	<path d="M44.3,45.4c-0.5-1.4-1.2-2.6-2.1-3.7c-0.9-1-1.9-1.8-3.1-2.4c-1.2-0.6-2.5-0.9-3.9-0.9v4.7c0.7,0,1.3,0.2,1.9,0.5
		c0.6,0.3,1.1,0.8,1.5,1.4c0.4,0.6,0.7,1.3,1,2.2c0.2,0.9,0.3,1.8,0.3,2.8c0,1-0.1,1.9-0.3,2.8c-0.2,0.8-0.6,1.6-1,2.2
		c-0.4,0.6-0.9,1.1-1.5,1.4c-0.6,0.3-1.2,0.5-1.9,0.5v4.7c1.4,0,2.7-0.3,3.9-0.9c1.2-0.6,2.2-1.4,3.1-2.4c0.9-1,1.6-2.2,2.1-3.7
		c0.5-1.4,0.7-3,0.7-4.6C45,48.3,44.8,46.8,44.3,45.4z"/>
</g>
<g>
	<path d="M58.3,149.1c0-1.1,0.1-2.2,0.3-3.1s0.5-1.8,0.9-2.6c0.4-0.8,1.1-1.5,1.8-2.2c0.8-0.7,1.8-1.4,2.9-2c1-0.6,2-1,2.8-1.5
		s1.5-0.8,2-1.2c0.5-0.4,0.9-0.7,1.2-1.1c0.3-0.4,0.4-0.8,0.4-1.3c0-0.8-0.3-1.4-0.9-2c-0.6-0.5-1.5-0.8-2.6-0.8
		c-0.6,0-1.2,0.1-1.7,0.2c-0.5,0.2-1,0.4-1.4,0.7c-0.4,0.3-0.8,0.6-1.2,0.9c-0.4,0.3-0.7,0.7-1,1.1l-3.3-3.8
		c0.3-0.4,0.8-0.7,1.4-1.2c0.6-0.4,1.3-0.8,2.2-1.2c0.8-0.4,1.7-0.7,2.7-0.9c1-0.2,2.1-0.4,3.2-0.4c1.3,0,2.4,0.2,3.5,0.5
		c1,0.3,1.9,0.8,2.6,1.3c0.7,0.6,1.2,1.3,1.6,2.1c0.4,0.8,0.6,1.7,0.6,2.6c0,0.9-0.2,1.7-0.5,2.4c-0.3,0.7-0.7,1.3-1.3,1.8
		s-1.1,1-1.7,1.4c-0.6,0.4-1.2,0.7-1.7,1c-0.5,0.3-1,0.5-1.6,0.9c-0.6,0.3-1.2,0.7-1.7,1.1c-0.6,0.4-1.1,0.8-1.6,1.2
		c-0.5,0.4-0.9,0.8-1.1,1.2h11.5v4.6H58.3z"/>
	<path d="M54.2,133.3c-0.5-1.4-1.2-2.6-2.1-3.7c-0.9-1-1.9-1.8-3.1-2.4c-1.2-0.6-2.5-0.9-3.9-0.9v4.7c0.7,0,1.3,0.2,1.9,0.5
		c0.6,0.3,1.1,0.8,1.5,1.4c0.4,0.6,0.7,1.3,1,2.2c0.2,0.9,0.3,1.8,0.3,2.8c0,1-0.1,1.9-0.3,2.8c-0.2,0.8-0.6,1.6-1,2.2
		c-0.4,0.6-0.9,1.1-1.5,1.4c-0.6,0.3-1.2,0.5-1.9,0.5v4.7c1.4,0,2.7-0.3,3.9-0.9c1.2-0.6,2.2-1.4,3.1-2.4c0.9-1,1.6-2.2,2.1-3.7
		c0.5-1.4,0.7-3,0.7-4.6C55,136.3,54.7,134.7,54.2,133.3z"/>
</g>
<g>
	<path d="M71.3,185.8c1.6,0.3,2.8,1,3.8,2.3c1,1.2,1.5,2.7,1.5,4.5c0,1.2-0.2,2.3-0.7,3.2c-0.5,1-1.1,1.8-2,2.5
		c-0.8,0.7-1.9,1.2-3.1,1.6c-1.2,0.4-2.6,0.6-4.1,0.6c-1.9,0-3.6-0.3-5.1-0.9c-1.5-0.6-2.7-1.5-3.7-2.7l2.9-3.6
		c0.7,0.8,1.4,1.5,2.4,1.9c0.9,0.5,2.1,0.7,3.4,0.7c1.5,0,2.7-0.3,3.5-0.9c0.8-0.6,1.2-1.5,1.2-2.8c0-1.3-0.5-2.3-1.4-3
		c-0.9-0.7-2.4-1.1-4.3-1.1h-1.1v-3.8h1.2c1.6,0,2.8-0.3,3.7-1c0.9-0.7,1.3-1.6,1.3-2.7c0-1-0.4-1.8-1.1-2.3
		c-0.7-0.5-1.6-0.8-2.8-0.8c-1.2,0-2.2,0.3-3.1,0.8c-0.9,0.5-1.7,1.3-2.3,2.2l-3.2-3.6c0.4-0.6,0.9-1.1,1.5-1.6
		c0.6-0.5,1.4-0.9,2.2-1.2c0.8-0.3,1.7-0.6,2.6-0.8c0.9-0.2,1.9-0.3,2.9-0.3c1.3,0,2.5,0.2,3.5,0.5c1.1,0.3,2,0.8,2.8,1.4
		c0.8,0.6,1.4,1.3,1.8,2.1c0.4,0.8,0.6,1.7,0.6,2.8c0,0.8-0.1,1.5-0.3,2.2c-0.2,0.7-0.6,1.3-1,1.9s-0.9,1-1.5,1.4
		C72.7,185.4,72,185.7,71.3,185.8z"/>
	<path d="M54.2,179c-0.5-1.4-1.2-2.6-2.1-3.7c-0.9-1-1.9-1.8-3.1-2.4c-1.2-0.6-2.5-0.9-3.9-0.9v4.7c0.7,0,1.3,0.2,1.9,0.5
		c0.6,0.3,1.1,0.8,1.5,1.4c0.4,0.6,0.7,1.3,1,2.2c0.2,0.9,0.3,1.8,0.3,2.8c0,1-0.1,1.9-0.3,2.8c-0.2,0.8-0.6,1.6-1,2.2
		c-0.4,0.6-0.9,1.1-1.5,1.4c-0.6,0.3-1.2,0.5-1.9,0.5v4.7c1.4,0,2.7-0.3,3.9-0.9c1.2-0.6,2.2-1.4,3.1-2.4c0.9-1,1.6-2.2,2.1-3.7
		c0.5-1.4,0.7-3,0.7-4.6C55,181.9,54.7,180.4,54.2,179z"/>
</g>
<g>
	<path d="M68.7,245.3v-5.7H57.6v-4.5l12.7-16.4h3.5V235h3.4v4.6h-3.4v5.7H68.7z M62.7,235h6.6v-8.6L62.7,235z"/>
	<path d="M54.2,224.7c-0.5-1.4-1.2-2.6-2.1-3.7c-0.9-1-1.9-1.8-3.1-2.4c-1.2-0.6-2.5-0.9-3.9-0.9v4.7c0.7,0,1.3,0.2,1.9,0.5
		c0.6,0.3,1.1,0.8,1.5,1.4c0.4,0.6,0.7,1.3,1,2.2c0.2,0.9,0.3,1.8,0.3,2.8c0,1-0.1,1.9-0.3,2.8c-0.2,0.8-0.6,1.6-1,2.2
		c-0.4,0.6-0.9,1.1-1.5,1.4c-0.6,0.3-1.2,0.5-1.9,0.5v4.7c1.4,0,2.7-0.3,3.9-0.9c1.2-0.6,2.2-1.4,3.1-2.4c0.9-1,1.6-2.2,2.1-3.7
		c0.5-1.4,0.7-3,0.7-4.6C55,227.6,54.7,226.1,54.2,224.7z"/>
</g>
<g>
	<path d="M67.9,274c1.3,0,2.4,0.2,3.5,0.6s2,1,2.8,1.8c0.8,0.8,1.4,1.7,1.8,2.7c0.4,1.1,0.7,2.2,0.7,3.5c0,1.4-0.2,2.6-0.7,3.7
		s-1.2,2.1-2.1,2.9c-0.9,0.8-1.9,1.4-3.2,1.9c-1.2,0.4-2.5,0.7-4,0.7c-2,0-3.7-0.4-5.3-1.3c-1.6-0.8-2.7-2-3.6-3.4l2.9-3
		c0.7,1,1.6,1.8,2.7,2.4c1.1,0.6,2.2,0.9,3.3,0.9c1.4,0,2.5-0.4,3.4-1.2c0.9-0.8,1.3-1.9,1.3-3.3c0-1.3-0.4-2.4-1.2-3.2
		c-0.8-0.8-1.9-1.2-3.1-1.2c-0.8,0-1.6,0.2-2.3,0.6c-0.7,0.4-1.3,0.9-1.7,1.6h-4.5c0-0.1,0-0.4,0.2-0.9c0.1-0.5,0.2-1.1,0.4-1.9
		c0.2-0.8,0.3-1.6,0.5-2.6c0.2-1,0.4-1.9,0.6-2.9c0.5-2.3,1-4.9,1.5-7.8h13.3v4.6h-9.6l-1.1,6c0.3-0.3,0.8-0.6,1.4-0.8
		C66.3,274.1,67,274,67.9,274z"/>
	<path d="M54.2,270.3c-0.5-1.4-1.2-2.6-2.1-3.7c-0.9-1-1.9-1.8-3.1-2.4c-1.2-0.6-2.5-0.9-3.9-0.9v4.7c0.7,0,1.3,0.2,1.9,0.5
		c0.6,0.3,1.1,0.8,1.5,1.4c0.4,0.6,0.7,1.3,1,2.2c0.2,0.9,0.3,1.8,0.3,2.8c0,1-0.1,1.9-0.3,2.8c-0.2,0.8-0.6,1.6-1,2.2
		c-0.4,0.6-0.9,1.1-1.5,1.4c-0.6,0.3-1.2,0.5-1.9,0.5v4.7c1.4,0,2.7-0.3,3.9-0.9c1.2-0.6,2.2-1.4,3.1-2.4c0.9-1,1.6-2.2,2.1-3.7
		c0.5-1.4,0.7-3,0.7-4.6C55,273.3,54.7,271.7,54.2,270.3z"/>
</g>
</svg>
