<svg width="553" height="485" viewBox="0 0 553 485" fill="none" xmlns="http://www.w3.org/2000/svg">
<path fill-rule="evenodd" clip-rule="evenodd" d="M314.996 -48.5022C390.102 -55.0386 465.935 -136.742 530.173 -97.2801C593.07 -58.6418 574.375 39.5951 578.392 113.303C581.45 169.423 570.79 222.995 550.482 275.4C531.267 324.985 505.652 371.094 465.143 405.547C422.009 442.234 370.967 467.095 314.996 475.684C251.258 485.465 178.882 495.928 127.166 457.411C75.5588 418.976 77.3099 343.76 56.2301 282.964C34.5869 220.542 -10.6879 162.063 2.30107 97.2853C15.8279 29.8248 63.0526 -32.9808 125.411 -62.0543C184.274 -89.4977 250.295 -42.8714 314.996 -48.5022Z" fill="#F7C45F"/>
</svg>
