<svg width="661" height="636" viewBox="0 0 661 636" fill="none" xmlns="http://www.w3.org/2000/svg">
<path fill-rule="evenodd" clip-rule="evenodd" d="M341.789 21.1845C408.618 8.21706 478.612 -14.5391 540.852 13.0393C609.095 43.278 663.381 104.067 687.927 174.559C712.738 245.81 697.037 323.123 673.823 394.91C650.581 466.787 617.455 537.93 556.152 582.071C494.992 626.109 416.871 640.512 341.789 633.99C270.996 627.842 203.159 597.253 152.874 547.045C107.038 501.278 103.642 432.362 79.6128 372.212C53.219 306.143 -20.2549 244.09 5.32502 177.702C31.1588 110.656 126.77 111.052 191.918 80.746C241.882 57.5032 287.692 31.6815 341.789 21.1845Z" fill="#2D5C5C"/>
</svg>
